<?xml version="1.0" encoding="UTF-8" standalone="no"?>
<!DOCTYPE svg PUBLIC "-//W3C//DTD SVG 1.1//EN"
 "http://www.w3.org/Graphics/SVG/1.1/DTD/svg11.dtd">
<!-- Generated by graphviz version 2.38.0 (20140413.2041)
 -->
<!-- Title: controllers_diagram Pages: 1 -->
<svg width="645pt" height="535pt"
 viewBox="0.00 0.00 645.00 535.00" xmlns="http://www.w3.org/2000/svg" xmlns:xlink="http://www.w3.org/1999/xlink">
<g id="graph0" class="graph" transform="scale(1 1) rotate(0) translate(259.5 291.5)">
<title>controllers_diagram</title>
<polygon fill="none" stroke="none" points="-259.5,243.5 -259.5,-291.5 385.5,-291.5 385.5,243.5 -259.5,243.5"/>
<!-- _diagram_info -->
<g id="node1" class="node"><title>_diagram_info</title>
<text text-anchor="start" x="-152" y="-223.6" font-family="Times,serif" font-size="13.00">Controllers diagram</text>
<text text-anchor="start" x="-152" y="-209.6" font-family="Times,serif" font-size="13.00">Date: Aug 09 2017 &#45; 20:59</text>
<text text-anchor="start" x="-152" y="-195.6" font-family="Times,serif" font-size="13.00">Migration version: 20170810001316</text>
<text text-anchor="start" x="-152" y="-181.6" font-family="Times,serif" font-size="13.00">Generated by RailRoady 1.5.3</text>
<text text-anchor="start" x="-152" y="-167.6" font-family="Times,serif" font-size="13.00">http://railroady.prestonlee.com</text>
</g>
<!-- Users::RegistrationsController -->
<g id="node2" class="node"><title>Users::RegistrationsController</title>
<path fill="none" stroke="black" d="M92,79C92,79 274,79 274,79 280,79 286,73 286,67 286,67 286,-17 286,-17 286,-23 280,-29 274,-29 274,-29 92,-29 92,-29 86,-29 80,-23 80,-17 80,-17 80,67 80,67 80,73 86,79 92,79"/>
<text text-anchor="middle" x="183" y="-13.8" font-family="Times,serif" font-size="14.00">Users::RegistrationsController</text>
<polyline fill="none" stroke="black" points="80,-6 286,-6 "/>
<polyline fill="none" stroke="black" points="80,18 286,18 "/>
<text text-anchor="start" x="88" y="33.2" font-family="Times,serif" font-size="14.00">configure_account_update_params</text>
<text text-anchor="start" x="88" y="48.2" font-family="Times,serif" font-size="14.00">configure_sign_up_params</text>
<polyline fill="none" stroke="black" points="80,56 286,56 "/>
<text text-anchor="start" x="88" y="71.2" font-family="Times,serif" font-size="14.00">_layout</text>
</g>
<!-- Users::UnlocksController -->
<g id="node3" class="node"><title>Users::UnlocksController</title>
<path fill="none" stroke="black" d="M-227.5,239C-227.5,239 -96.5,239 -96.5,239 -90.5,239 -84.5,233 -84.5,227 -84.5,227 -84.5,157 -84.5,157 -84.5,151 -90.5,145 -96.5,145 -96.5,145 -227.5,145 -227.5,145 -233.5,145 -239.5,151 -239.5,157 -239.5,157 -239.5,227 -239.5,227 -239.5,233 -233.5,239 -227.5,239"/>
<text text-anchor="middle" x="-162" y="160.2" font-family="Times,serif" font-size="14.00">Users::UnlocksController</text>
<polyline fill="none" stroke="black" points="-239.5,168 -84.5,168 "/>
<polyline fill="none" stroke="black" points="-239.5,192 -84.5,192 "/>
<polyline fill="none" stroke="black" points="-239.5,216 -84.5,216 "/>
<text text-anchor="start" x="-231.5" y="231.2" font-family="Times,serif" font-size="14.00">_layout</text>
</g>
<!-- Users::PasswordsController -->
<g id="node4" class="node"><title>Users::PasswordsController</title>
<path fill="none" stroke="black" d="M91.5,207C91.5,207 234.5,207 234.5,207 240.5,207 246.5,201 246.5,195 246.5,195 246.5,125 246.5,125 246.5,119 240.5,113 234.5,113 234.5,113 91.5,113 91.5,113 85.5,113 79.5,119 79.5,125 79.5,125 79.5,195 79.5,195 79.5,201 85.5,207 91.5,207"/>
<text text-anchor="middle" x="163" y="128.2" font-family="Times,serif" font-size="14.00">Users::PasswordsController</text>
<polyline fill="none" stroke="black" points="79.5,136 246.5,136 "/>
<polyline fill="none" stroke="black" points="79.5,160 246.5,160 "/>
<polyline fill="none" stroke="black" points="79.5,184 246.5,184 "/>
<text text-anchor="start" x="87.5" y="199.2" font-family="Times,serif" font-size="14.00">_layout</text>
</g>
<!-- Users::OmniauthCallbacksController -->
<g id="node5" class="node"><title>Users::OmniauthCallbacksController</title>
<path fill="none" stroke="black" d="M92,-65C92,-65 286,-65 286,-65 292,-65 298,-71 298,-77 298,-77 298,-147 298,-147 298,-153 292,-159 286,-159 286,-159 92,-159 92,-159 86,-159 80,-153 80,-147 80,-147 80,-77 80,-77 80,-71 86,-65 92,-65"/>
<text text-anchor="middle" x="189" y="-143.8" font-family="Times,serif" font-size="14.00">Users::OmniauthCallbacksController</text>
<polyline fill="none" stroke="black" points="80,-136 298,-136 "/>
<polyline fill="none" stroke="black" points="80,-112 298,-112 "/>
<polyline fill="none" stroke="black" points="80,-88 298,-88 "/>
<text text-anchor="start" x="88" y="-72.8" font-family="Times,serif" font-size="14.00">_layout</text>
</g>
<!-- Users::ConfirmationsController -->
<g id="node6" class="node"><title>Users::ConfirmationsController</title>
<path fill="none" stroke="black" d="M204.5,-193C204.5,-193 369.5,-193 369.5,-193 375.5,-193 381.5,-199 381.5,-205 381.5,-205 381.5,-275 381.5,-275 381.5,-281 375.5,-287 369.5,-287 369.5,-287 204.5,-287 204.5,-287 198.5,-287 192.5,-281 192.5,-275 192.5,-275 192.5,-205 192.5,-205 192.5,-199 198.5,-193 204.5,-193"/>
<text text-anchor="middle" x="287" y="-271.8" font-family="Times,serif" font-size="14.00">Users::ConfirmationsController</text>
<polyline fill="none" stroke="black" points="192.5,-264 381.5,-264 "/>
<polyline fill="none" stroke="black" points="192.5,-240 381.5,-240 "/>
<polyline fill="none" stroke="black" points="192.5,-216 381.5,-216 "/>
<text text-anchor="start" x="200.5" y="-200.8" font-family="Times,serif" font-size="14.00">_layout</text>
</g>
<!-- Users::SessionsController -->
<g id="node7" class="node"><title>Users::SessionsController</title>
<path fill="none" stroke="black" d="M-243.5,-33C-243.5,-33 -110.5,-33 -110.5,-33 -104.5,-33 -98.5,-39 -98.5,-45 -98.5,-45 -98.5,-115 -98.5,-115 -98.5,-121 -104.5,-127 -110.5,-127 -110.5,-127 -243.5,-127 -243.5,-127 -249.5,-127 -255.5,-121 -255.5,-115 -255.5,-115 -255.5,-45 -255.5,-45 -255.5,-39 -249.5,-33 -243.5,-33"/>
<text text-anchor="middle" x="-177" y="-111.8" font-family="Times,serif" font-size="14.00">Users::SessionsController</text>
<polyline fill="none" stroke="black" points="-255.5,-104 -98.5,-104 "/>
<polyline fill="none" stroke="black" points="-255.5,-80 -98.5,-80 "/>
<polyline fill="none" stroke="black" points="-255.5,-56 -98.5,-56 "/>
<text text-anchor="start" x="-247.5" y="-40.8" font-family="Times,serif" font-size="14.00">_layout</text>
</g>
<!-- ApplicationController -->
<g id="node8" class="node"><title>ApplicationController</title>
<path fill="none" stroke="black" d="M-228,95C-228,95 -116,95 -116,95 -110,95 -104,89 -104,83 -104,83 -104,13 -104,13 -104,7 -110,1 -116,1 -116,1 -228,1 -228,1 -234,1 -240,7 -240,13 -240,13 -240,83 -240,83 -240,89 -234,95 -228,95"/>
<text text-anchor="middle" x="-172" y="16.2" font-family="Times,serif" font-size="14.00">ApplicationController</text>
<polyline fill="none" stroke="black" points="-240,24 -104,24 "/>
<polyline fill="none" stroke="black" points="-240,48 -104,48 "/>
<polyline fill="none" stroke="black" points="-240,72 -104,72 "/>
<text text-anchor="start" x="-232" y="87.2" font-family="Times,serif" font-size="14.00">_layout</text>
</g>
<!-- SongsController -->
<g id="node9" class="node"><title>SongsController</title>
<path fill="none" stroke="black" d="M-51.5,111.5C-51.5,111.5 29.5,111.5 29.5,111.5 35.5,111.5 41.5,105.5 41.5,99.5 41.5,99.5 41.5,-89.5 41.5,-89.5 41.5,-95.5 35.5,-101.5 29.5,-101.5 29.5,-101.5 -51.5,-101.5 -51.5,-101.5 -57.5,-101.5 -63.5,-95.5 -63.5,-89.5 -63.5,-89.5 -63.5,99.5 -63.5,99.5 -63.5,105.5 -57.5,111.5 -51.5,111.5"/>
<text text-anchor="middle" x="-11" y="-86.3" font-family="Times,serif" font-size="14.00">SongsController</text>
<polyline fill="none" stroke="black" points="-63.5,-78.5 41.5,-78.5 "/>
<text text-anchor="start" x="-55.5" y="-63.3" font-family="Times,serif" font-size="14.00">create</text>
<text text-anchor="start" x="-55.5" y="-48.3" font-family="Times,serif" font-size="14.00">destroy</text>
<text text-anchor="start" x="-55.5" y="-33.3" font-family="Times,serif" font-size="14.00">edit</text>
<text text-anchor="start" x="-55.5" y="-18.3" font-family="Times,serif" font-size="14.00">index</text>
<text text-anchor="start" x="-55.5" y="-3.3" font-family="Times,serif" font-size="14.00">new</text>
<text text-anchor="start" x="-55.5" y="11.7" font-family="Times,serif" font-size="14.00">show</text>
<text text-anchor="start" x="-55.5" y="26.7" font-family="Times,serif" font-size="14.00">update</text>
<polyline fill="none" stroke="black" points="-63.5,34.5 41.5,34.5 "/>
<polyline fill="none" stroke="black" points="-63.5,58.5 41.5,58.5 "/>
<text text-anchor="start" x="-55.5" y="73.7" font-family="Times,serif" font-size="14.00">_layout</text>
<text text-anchor="start" x="-55.5" y="88.7" font-family="Times,serif" font-size="14.00">set_song</text>
<text text-anchor="start" x="-55.5" y="103.7" font-family="Times,serif" font-size="14.00">song_params</text>
</g>
</g>
</svg>
