<?xml version="1.0" encoding="UTF-8" standalone="no"?>
<!DOCTYPE svg PUBLIC "-//W3C//DTD SVG 1.1//EN"
 "http://www.w3.org/Graphics/SVG/1.1/DTD/svg11.dtd">
<!-- Generated by graphviz version 2.38.0 (20140413.2041)
 -->
<!-- Title: models_diagram Pages: 1 -->
<svg width="477pt" height="302pt"
 viewBox="0.00 0.00 477.34 302.00" xmlns="http://www.w3.org/2000/svg" xmlns:xlink="http://www.w3.org/1999/xlink">
<g id="graph0" class="graph" transform="scale(1 1) rotate(0) translate(4 298)">
<title>models_diagram</title>
<polygon fill="none" stroke="none" points="-4,4 -4,-298 473.343,-298 473.343,4 -4,4"/>
<!-- _diagram_info -->
<g id="node1" class="node"><title>_diagram_info</title>
<text text-anchor="start" x="8" y="-279.6" font-family="Times,serif" font-size="13.00">Models diagram</text>
<text text-anchor="start" x="8" y="-265.6" font-family="Times,serif" font-size="13.00">Date: Aug 09 2017 &#45; 20:59</text>
<text text-anchor="start" x="8" y="-251.6" font-family="Times,serif" font-size="13.00">Migration version: 20170810001316</text>
<text text-anchor="start" x="8" y="-237.6" font-family="Times,serif" font-size="13.00">Generated by RailRoady 1.5.3</text>
<text text-anchor="start" x="8" y="-223.6" font-family="Times,serif" font-size="13.00">http://railroady.prestonlee.com</text>
</g>
<!-- Genre -->
<g id="node2" class="node"><title>Genre</title>
<ellipse fill="none" stroke="black" cx="264" cy="-255" rx="32.4942" ry="18"/>
<text text-anchor="middle" x="264" y="-251.3" font-family="Times,serif" font-size="14.00">Genre</text>
</g>
<!-- Song -->
<g id="node5" class="node"><title>Song</title>
<ellipse fill="none" stroke="black" cx="264" cy="-162" rx="28.6953" ry="18"/>
<text text-anchor="middle" x="264" y="-158.3" font-family="Times,serif" font-size="14.00">Song</text>
</g>
<!-- Genre&#45;&gt;Song -->
<g id="edge1" class="edge"><title>Genre&#45;&gt;Song</title>
<path fill="none" stroke="#d3628a" d="M264,-228.729C264,-216.725 264,-202.362 264,-190.129"/>
<ellipse fill="none" stroke="#d3628a" cx="264" cy="-232.884" rx="4" ry="4"/>
<polygon fill="#d3628a" stroke="#d3628a" points="264,-190.04 268.5,-180.04 264,-185.04 264,-180.04 264,-180.04 264,-180.04 264,-185.04 259.5,-180.04 264,-190.04 264,-190.04"/>
</g>
<!-- ApplicationRecord -->
<g id="node3" class="node"><title>ApplicationRecord</title>
<ellipse fill="none" stroke="black" cx="392" cy="-255" rx="77.1866" ry="18"/>
<text text-anchor="middle" x="392" y="-251.3" font-family="Times,serif" font-size="14.00">ApplicationRecord</text>
</g>
<!-- UserSong -->
<g id="node4" class="node"><title>UserSong</title>
<ellipse fill="none" stroke="black" cx="264" cy="-18" rx="45.4919" ry="18"/>
<text text-anchor="middle" x="264" y="-14.3" font-family="Times,serif" font-size="14.00">UserSong</text>
</g>
<!-- Song&#45;&gt;UserSong -->
<g id="edge2" class="edge"><title>Song&#45;&gt;UserSong</title>
<path fill="none" stroke="#112f22" d="M259.421,-135.884C258.029,-127.096 256.686,-117.142 256,-108 254.803,-92.0449 254.803,-87.9551 256,-72 256.637,-63.5179 257.838,-54.3361 259.121,-46.0356"/>
<ellipse fill="none" stroke="#112f22" cx="260.096" cy="-139.942" rx="4.00001" ry="4.00001"/>
<polygon fill="#112f22" stroke="#112f22" points="259.13,-45.9796 265.192,-36.8417 259.941,-41.0458 260.752,-36.1119 260.752,-36.1119 260.752,-36.1119 259.941,-41.0458 256.311,-35.3822 259.13,-45.9796 259.13,-45.9796"/>
</g>
<!-- User -->
<g id="node6" class="node"><title>User</title>
<ellipse fill="none" stroke="black" cx="292" cy="-90" rx="27.0966" ry="18"/>
<text text-anchor="middle" x="292" y="-86.3" font-family="Times,serif" font-size="14.00">User</text>
</g>
<!-- Song&#45;&gt;User -->
<g id="edge3" class="edge"><title>Song&#45;&gt;User</title>
<path fill="none" stroke="#8e5674" d="M274.435,-134.912C276.791,-129.022 279.291,-122.772 281.644,-116.891"/>
<polygon fill="#8e5674" stroke="#8e5674" points="274.35,-135.126 266.457,-142.74 272.493,-139.769 270.636,-144.411 270.636,-144.411 270.636,-144.411 272.493,-139.769 274.814,-146.082 274.35,-135.126 274.35,-135.126"/>
<polygon fill="#8e5674" stroke="#8e5674" points="281.698,-116.755 289.59,-109.141 283.555,-112.112 285.412,-107.47 285.412,-107.47 285.412,-107.47 283.555,-112.112 281.234,-105.799 281.698,-116.755 281.698,-116.755"/>
</g>
<!-- User&#45;&gt;UserSong -->
<g id="edge4" class="edge"><title>User&#45;&gt;UserSong</title>
<path fill="none" stroke="#332155" d="M282.311,-64.7779C279.818,-58.544 277.122,-51.8046 274.585,-45.4634"/>
<ellipse fill="none" stroke="#332155" cx="283.879" cy="-68.6971" rx="4.00001" ry="4.00001"/>
<polygon fill="#332155" stroke="#332155" points="274.496,-45.241 274.961,-34.2849 272.639,-40.5986 270.782,-35.9562 270.782,-35.9562 270.782,-35.9562 272.639,-40.5986 266.604,-37.6275 274.496,-45.241 274.496,-45.241"/>
</g>
</g>
</svg>
