<?xml version="1.0" encoding="UTF-8" standalone="no"?>
<!DOCTYPE svg PUBLIC "-//W3C//DTD SVG 1.1//EN"
 "http://www.w3.org/Graphics/SVG/1.1/DTD/svg11.dtd">
<!-- Generated by graphviz version 2.38.0 (20140413.2041)
 -->
<!-- Title: models_diagram Pages: 1 -->
<svg width="656pt" height="694pt"
 viewBox="0.00 0.00 656.34 694.00" xmlns="http://www.w3.org/2000/svg" xmlns:xlink="http://www.w3.org/1999/xlink">
<g id="graph0" class="graph" transform="scale(1 1) rotate(0) translate(4 690)">
<title>models_diagram</title>
<polygon fill="none" stroke="none" points="-4,4 -4,-690 652.343,-690 652.343,4 -4,4"/>
<!-- _diagram_info -->
<g id="node1" class="node"><title>_diagram_info</title>
<text text-anchor="start" x="8" y="-664.6" font-family="Times,serif" font-size="13.00">Models diagram</text>
<text text-anchor="start" x="8" y="-650.6" font-family="Times,serif" font-size="13.00">Date: Aug 09 2017 &#45; 20:59</text>
<text text-anchor="start" x="8" y="-636.6" font-family="Times,serif" font-size="13.00">Migration version: 20170810001316</text>
<text text-anchor="start" x="8" y="-622.6" font-family="Times,serif" font-size="13.00">Generated by RailRoady 1.5.3</text>
<text text-anchor="start" x="8" y="-608.6" font-family="Times,serif" font-size="13.00">http://railroady.prestonlee.com</text>
</g>
<!-- Genre -->
<g id="node2" class="node"><title>Genre</title>
<path fill="none" stroke="black" d="M244,-594.5C244,-594.5 464,-594.5 464,-594.5 470,-594.5 476,-600.5 476,-606.5 476,-606.5 476,-673.5 476,-673.5 476,-679.5 470,-685.5 464,-685.5 464,-685.5 244,-685.5 244,-685.5 238,-685.5 232,-679.5 232,-673.5 232,-673.5 232,-606.5 232,-606.5 232,-600.5 238,-594.5 244,-594.5"/>
<text text-anchor="middle" x="354" y="-670.3" font-family="Times,serif" font-size="14.00">Genre</text>
<polyline fill="none" stroke="black" points="232,-662.5 476,-662.5 "/>
<text text-anchor="start" x="240" y="-647.3" font-family="Times,serif" font-size="14.00">id :integer</text>
<text text-anchor="start" x="240" y="-632.3" font-family="Times,serif" font-size="14.00">created_at :timestamp without time zone</text>
<text text-anchor="start" x="240" y="-617.3" font-family="Times,serif" font-size="14.00">updated_at :timestamp without time zone</text>
<text text-anchor="start" x="240" y="-602.3" font-family="Times,serif" font-size="14.00">name :character varying</text>
</g>
<!-- Song -->
<g id="node5" class="node"><title>Song</title>
<path fill="none" stroke="black" d="M244,-436.5C244,-436.5 464,-436.5 464,-436.5 470,-436.5 476,-442.5 476,-448.5 476,-448.5 476,-545.5 476,-545.5 476,-551.5 470,-557.5 464,-557.5 464,-557.5 244,-557.5 244,-557.5 238,-557.5 232,-551.5 232,-545.5 232,-545.5 232,-448.5 232,-448.5 232,-442.5 238,-436.5 244,-436.5"/>
<text text-anchor="middle" x="354" y="-542.3" font-family="Times,serif" font-size="14.00">Song</text>
<polyline fill="none" stroke="black" points="232,-534.5 476,-534.5 "/>
<text text-anchor="start" x="240" y="-519.3" font-family="Times,serif" font-size="14.00">id :integer</text>
<text text-anchor="start" x="240" y="-504.3" font-family="Times,serif" font-size="14.00">name :character varying</text>
<text text-anchor="start" x="240" y="-489.3" font-family="Times,serif" font-size="14.00">duration :integer</text>
<text text-anchor="start" x="240" y="-474.3" font-family="Times,serif" font-size="14.00">genre_id :integer</text>
<text text-anchor="start" x="240" y="-459.3" font-family="Times,serif" font-size="14.00">created_at :timestamp without time zone</text>
<text text-anchor="start" x="240" y="-444.3" font-family="Times,serif" font-size="14.00">updated_at :timestamp without time zone</text>
</g>
<!-- Genre&#45;&gt;Song -->
<g id="edge1" class="edge"><title>Genre&#45;&gt;Song</title>
<path fill="none" stroke="#3e329b" d="M354,-586.283C354,-580.279 354,-574.09 354,-567.907"/>
<ellipse fill="none" stroke="#3e329b" cx="354" cy="-590.387" rx="4" ry="4"/>
<polygon fill="#3e329b" stroke="#3e329b" points="354,-567.541 358.5,-557.541 354,-562.541 354,-557.541 354,-557.541 354,-557.541 354,-562.541 349.5,-557.541 354,-567.541 354,-567.541"/>
</g>
<!-- ApplicationRecord -->
<g id="node3" class="node"><title>ApplicationRecord</title>
<ellipse fill="none" stroke="black" cx="571" cy="-640" rx="77.1866" ry="18"/>
<text text-anchor="middle" x="571" y="-636.3" font-family="Times,serif" font-size="14.00">ApplicationRecord</text>
</g>
<!-- UserSong -->
<g id="node4" class="node"><title>UserSong</title>
<path fill="none" stroke="black" d="M244,-0.5C244,-0.5 464,-0.5 464,-0.5 470,-0.5 476,-6.5 476,-12.5 476,-12.5 476,-109.5 476,-109.5 476,-115.5 470,-121.5 464,-121.5 464,-121.5 244,-121.5 244,-121.5 238,-121.5 232,-115.5 232,-109.5 232,-109.5 232,-12.5 232,-12.5 232,-6.5 238,-0.5 244,-0.5"/>
<text text-anchor="middle" x="354" y="-106.3" font-family="Times,serif" font-size="14.00">UserSong</text>
<polyline fill="none" stroke="black" points="232,-98.5 476,-98.5 "/>
<text text-anchor="start" x="240" y="-83.3" font-family="Times,serif" font-size="14.00">id :integer</text>
<text text-anchor="start" x="240" y="-68.3" font-family="Times,serif" font-size="14.00">position :integer</text>
<text text-anchor="start" x="240" y="-53.3" font-family="Times,serif" font-size="14.00">user_id :integer</text>
<text text-anchor="start" x="240" y="-38.3" font-family="Times,serif" font-size="14.00">song_id :integer</text>
<text text-anchor="start" x="240" y="-23.3" font-family="Times,serif" font-size="14.00">created_at :timestamp without time zone</text>
<text text-anchor="start" x="240" y="-8.3" font-family="Times,serif" font-size="14.00">updated_at :timestamp without time zone</text>
</g>
<!-- Song&#45;&gt;UserSong -->
<g id="edge2" class="edge"><title>Song&#45;&gt;UserSong</title>
<path fill="none" stroke="#4e3bea" d="M296.064,-429.578C290.334,-420.147 285.393,-410.179 282,-400 247.988,-297.964 247.988,-260.036 282,-158 285.162,-148.513 289.67,-139.209 294.907,-130.352"/>
<ellipse fill="none" stroke="#4e3bea" cx="298.22" cy="-432.969" rx="4.00002" ry="4.00002"/>
<polygon fill="#4e3bea" stroke="#4e3bea" points="295.05,-130.125 304.177,-124.047 297.707,-125.89 300.365,-121.655 300.365,-121.655 300.365,-121.655 297.707,-125.89 296.553,-119.263 295.05,-130.125 295.05,-130.125"/>
</g>
<!-- User -->
<g id="node6" class="node"><title>User</title>
<path fill="none" stroke="black" d="M302.5,-158.5C302.5,-158.5 591.5,-158.5 591.5,-158.5 597.5,-158.5 603.5,-164.5 603.5,-170.5 603.5,-170.5 603.5,-387.5 603.5,-387.5 603.5,-393.5 597.5,-399.5 591.5,-399.5 591.5,-399.5 302.5,-399.5 302.5,-399.5 296.5,-399.5 290.5,-393.5 290.5,-387.5 290.5,-387.5 290.5,-170.5 290.5,-170.5 290.5,-164.5 296.5,-158.5 302.5,-158.5"/>
<text text-anchor="middle" x="447" y="-384.3" font-family="Times,serif" font-size="14.00">User</text>
<polyline fill="none" stroke="black" points="290.5,-376.5 603.5,-376.5 "/>
<text text-anchor="start" x="298.5" y="-361.3" font-family="Times,serif" font-size="14.00">id :integer</text>
<text text-anchor="start" x="298.5" y="-346.3" font-family="Times,serif" font-size="14.00">email :character varying</text>
<text text-anchor="start" x="298.5" y="-331.3" font-family="Times,serif" font-size="14.00">encrypted_password :character varying</text>
<text text-anchor="start" x="298.5" y="-316.3" font-family="Times,serif" font-size="14.00">reset_password_token :character varying</text>
<text text-anchor="start" x="298.5" y="-301.3" font-family="Times,serif" font-size="14.00">reset_password_sent_at :timestamp without time zone</text>
<text text-anchor="start" x="298.5" y="-286.3" font-family="Times,serif" font-size="14.00">remember_created_at :timestamp without time zone</text>
<text text-anchor="start" x="298.5" y="-271.3" font-family="Times,serif" font-size="14.00">sign_in_count :integer</text>
<text text-anchor="start" x="298.5" y="-256.3" font-family="Times,serif" font-size="14.00">current_sign_in_at :timestamp without time zone</text>
<text text-anchor="start" x="298.5" y="-241.3" font-family="Times,serif" font-size="14.00">last_sign_in_at :timestamp without time zone</text>
<text text-anchor="start" x="298.5" y="-226.3" font-family="Times,serif" font-size="14.00">current_sign_in_ip :inet</text>
<text text-anchor="start" x="298.5" y="-211.3" font-family="Times,serif" font-size="14.00">last_sign_in_ip :inet</text>
<text text-anchor="start" x="298.5" y="-196.3" font-family="Times,serif" font-size="14.00">name :character varying</text>
<text text-anchor="start" x="298.5" y="-181.3" font-family="Times,serif" font-size="14.00">created_at :timestamp without time zone</text>
<text text-anchor="start" x="298.5" y="-166.3" font-family="Times,serif" font-size="14.00">updated_at :timestamp without time zone</text>
</g>
<!-- Song&#45;&gt;User -->
<g id="edge3" class="edge"><title>Song&#45;&gt;User</title>
<path fill="none" stroke="#c078a8" d="M383.679,-427.069C386.154,-421.32 388.702,-415.401 391.291,-409.389"/>
<polygon fill="#c078a8" stroke="#c078a8" points="383.613,-427.22 375.526,-434.626 381.636,-431.813 379.659,-436.405 379.659,-436.405 379.659,-436.405 381.636,-431.813 383.792,-438.185 383.613,-427.22 383.613,-427.22"/>
<polygon fill="#c078a8" stroke="#c078a8" points="391.431,-409.063 399.519,-401.658 393.408,-404.471 395.386,-399.878 395.386,-399.878 395.386,-399.878 393.408,-404.471 391.252,-398.099 391.431,-409.063 391.431,-409.063"/>
</g>
<!-- User&#45;&gt;UserSong -->
<g id="edge4" class="edge"><title>User&#45;&gt;UserSong</title>
<path fill="none" stroke="#f747dd" d="M392.289,-150.929C389.369,-144.148 386.494,-137.471 383.712,-131.009"/>
<ellipse fill="none" stroke="#f747dd" cx="393.886" cy="-154.639" rx="4.00002" ry="4.00002"/>
<polygon fill="#f747dd" stroke="#f747dd" points="383.662,-130.893 383.841,-119.928 381.685,-126.3 379.707,-121.708 379.707,-121.708 379.707,-121.708 381.685,-126.3 375.574,-123.487 383.662,-130.893 383.662,-130.893"/>
</g>
</g>
</svg>
